# xmcd
#
# Track frame offsets:
#	150
#	12830
#	28115
#	41287
#	53205
#	66292
#	79872
#	92880
#	106042
#	118795
#	131737
#	143340
#	156507
#	168890
#	184485
#	197590
#	210322
#	223250
#	236677
#	249797
#
# Disc length: 3509
#
# Revision: 2
# Processed by: cddbd v1.5.1PL0 Copyright (c) Steve Scherf et al.
# Submitted via: audiograbber 1.83.01
# Normalized: r1:DSETVAR1
#
DISCID=130db314
DTITLE=Various Artist - Mississippi - Memphis - Chicago Blues
DYEAR=2000
DGENRE=Blues
TTITLE0=Big Joe Williams - Please Don't Go
TTITLE1=Sonny Boy Wiliamson - Love Me Baby
TTITLE2=T-Bone Walker - Mean Old World
TTITLE3=Big Joe Turner and Freddie Slack Trio - Blues on Central Avenue
TTITLE4=Big Bill Broonzy - Doing the Best I Can
TTITLE5=Frank Edwards - Three Women Blues
TTITLE6=Robert Johnson - Preachin' Blues
TTITLE7=Sleepy John Estes - Mailman Blues
TTITLE8=Yank Rachell - Up North Blues
TTITLE9=Blind Blues Darby - The Girl I Left Behind
TTITLE10=Rhythm Willie and His Gang - Breathtakong Blues
TTITLE11=Memphis Minnie and the Memphis Jug Band - Bumble Bee Blues
TTITLE12=Tampa Red - Mean Mistreater Blues
TTITLE13=Muddy Waters - Country Blues
TTITLE14=Robert Lockwood - Take a Little Walk with Me
TTITLE15=Tommy Mc Clennan - Bottle It Up and Go
TTITLE16=Robert Petway - Catfish Blues
TTITLE17=Tony Hollins - Crawlin' King Snake Blues
TTITLE18=Sister Rosetta Tharpe - I Looked Down the Line (And I Wondered)
TTITLE19=Blind Willie and Kate Mc Tell - Dying Gambler
EXTD=
EXTT0=
EXTT1=
EXTT2=
EXTT3=
EXTT4=
EXTT5=
EXTT6=
EXTT7=
EXTT8=
EXTT9=
EXTT10=
EXTT11=
EXTT12=
EXTT13=
EXTT14=
EXTT15=
EXTT16=
EXTT17=
EXTT18=
EXTT19=
PLAYORDER=
